<svg xmlns="http://www.w3.org/2000/svg" pointer-events="none" class="leaflet-zoom-animated" width="1452" height="859"
     style="transform: translate3d(-121px, -72px, 0px) scale(1);" viewBox="-121 -72 1452 859">
    <g>
        <path class="leaflet-interactive" stroke="#fff" stroke-opacity="1" stroke-width="2" stroke-linecap="round"
              stroke-linejoin="round" fill="none"
              d="M362 315L362 311L361 312L359 308L363 306L362 303L365 300L366 301L369 298L371 298L371 296L374 297L376 295L377 298L383 298L388 290L393 291L396 288L397 289L397 287L403 285L406 282L413 280L413 273L416 270L415 269L418 268L418 264L415 257L415 251L411 249L411 247L424 243L432 245L433 244L430 241L430 239L436 221L443 224L452 225L456 223L458 221L456 210L460 206L462 207L465 205L467 201L466 200L468 198L474 198L476 205L481 207L483 211L489 211L490 214L493 213L493 215L496 217L498 224L500 224L501 227L501 230L499 232L500 235L498 238L499 245L500 244L503 246L504 245L510 247L520 247L531 255L536 255L535 258L537 258L538 263L544 272L550 271L569 274L585 274L592 279L593 278L598 281L608 282L609 284L613 285L616 282L633 275L643 276L654 273L662 265L666 264L669 261L665 255L666 250L669 246L682 250L686 248L691 242L698 242L704 237L703 236L708 231L712 231L713 228L717 229L719 227L724 226L726 228L733 227L732 222L722 212L717 211L713 215L704 213L701 216L698 213L698 211L700 209L707 189L715 193L722 188L728 186L729 183L727 183L727 181L732 174L734 166L737 163L739 163L740 160L739 155L737 153L734 154L734 152L742 144L743 145L759 141L763 141L767 144L768 143L770 146L773 147L779 147L779 150L781 150L782 154L785 156L784 159L786 160L785 161L788 166L787 167L789 168L789 174L792 177L793 184L795 184L794 189L797 193L804 192L804 194L810 194L810 196L812 196L816 201L820 201L818 204L821 208L819 210L823 216L834 215L839 210L841 211L848 207L855 207L852 208L851 213L853 215L847 221L848 222L845 229L846 232L839 245L836 246L829 243L827 245L828 246L822 248L825 258L825 264L823 270L818 272L819 275L816 272L816 270L813 269L812 274L810 276L809 275L806 280L798 280L801 285L799 287L792 286L790 284L791 283L789 283L790 282L787 283L782 292L775 295L769 300M402 382L399 379L399 377L402 374L404 378L406 376L406 372L401 366L401 362L404 359L398 355L396 347L391 348L384 345L384 343L381 344L379 341L380 338L377 335L375 335L375 333L367 331L369 329L371 330M628 472L626 472L627 469L625 469L627 465L625 463L620 464L616 460L614 460L612 464L607 464L604 467L602 465L600 465L597 468L594 465L592 465L591 468L586 467L586 479L582 478L582 474L574 476L574 474L572 474L571 471L567 471L567 465L569 463L564 461L564 457L562 455L564 453L558 453L554 455L553 454L555 452L553 450L555 446L554 445L562 437L561 436L563 432L563 424L560 421L560 423L558 421L558 417L554 415L554 413L552 415L553 416L551 416L552 419L549 421L542 416L538 416L535 417L535 419L532 421L527 422L521 428L517 429L509 429L509 423L505 423L504 418L499 419L490 416L486 420L484 425L482 423L483 418L481 417L479 419L474 420L470 420L465 417L463 419L461 417L461 419L457 415L454 416L453 412L450 413L445 408L445 406L441 408L436 403L434 403L434 401L433 402L432 400L430 400L429 397L424 396L422 400L408 390L405 391L402 388L402 382M637 476L632 475L628 472M640 605L639 596M648 521L651 525L652 530M656 554L654 562M668 626L676 623M698 595L703 589M722 565L725 556M726 523L726 532M734 498L729 506M749 474L743 482M754 459L756 449"/>
        <path class="leaflet-interactive" stroke="#fff" stroke-opacity="1" stroke-width="2" stroke-linecap="butt"
              stroke-linejoin="round" stroke-dasharray="4,4" stroke-dashoffset="4" fill="none"
              d="M371 330L373 328L371 326L371 318L369 316L366 315L364 317L362 315"/>
        <path class="leaflet-interactive" stroke="#B4B4B4" stroke-opacity="1" stroke-width="1" stroke-linecap="round"
              stroke-linejoin="round" stroke-dasharray="8,4,4,4" fill="none"
              d="M682 470L682 470M687 467L685 467L684 470L689 470L689 468L687 467"/>
        <path class="leaflet-interactive" stroke="#4190da" stroke-opacity="1" stroke-width="1" stroke-linecap="round"
              stroke-linejoin="round" fill="none"
              d="M686 469L686 467L684 468L683 465L682 470L680 472L679 471L679 473L676 472L674 474L671 473L669 475L659 477L655 480L655 482L658 485L656 487L652 487L650 481L652 477L650 475L648 477L646 477L646 475L637 476M656 479L656 479M656 479L656 481L656 479M682 470L682 470M686 469L686 469M686 469L686 469M686 469L686 469M733 430L730 431L732 431L733 434L730 435L731 438L729 440L733 440L731 442L728 441L728 443L726 443L727 444L726 445L726 443L724 447L723 446L724 447L722 450L719 449L719 451L713 458L709 458L705 464L699 464L697 466L695 464L692 467L690 465L690 467L689 468L689 466L687 468L689 468L686 469M733 430L733 430M748 408L746 412L747 415L744 418L743 417L742 420L741 419L733 432L732 431L734 429L733 430M746 334L744 336L740 336L741 339L740 338L739 341L736 342L736 340L736 342L727 353L737 361L741 371L741 375L746 379L745 380L749 382L749 384L744 382L742 384L744 386M744 386L750 391L749 392L751 394L747 392L742 395L745 396L749 401L751 401L748 403L750 404L749 408M746 334L746 334M746 334L746 334M752 308L749 312L745 314L742 313L747 310L747 308L746 309L743 306L745 306L745 304L752 297L751 294L750 295L748 293L743 292L738 297L738 299L731 302L728 305L728 307L722 311L722 313L719 312L719 310L717 310L715 314L715 318L717 318L717 320L724 321L727 324L728 323L728 325L725 326L725 328L728 331L732 331L732 329L736 326L735 325L739 324L745 326L745 328L751 327L755 329L752 334L746 334M746 334L746 334M748 408L748 408M748 408L748 408M748 408L748 408M749 408L748 408M749 408L749 408M751 400L751 400M751 400L751 400M751 400L751 400M752 400L751 400M751 400L749 398L751 398L752 400M752 400L752 400M752 398L753 397L752 398M752 398L752 398M752 308L752 308M769 300L767 304L761 304L752 308M753 393L753 393M753 393L753 393M755 392L755 392M644 475L644 475M646 480L646 480M649 490L649 490M649 594L650 592L653 593L652 592L649 594M650 505L642 501L642 495L647 490L659 487L662 491L659 494L657 500L651 503L650 505M653 590L654 589L653 590M656 483L656 483M657 479L657 479M657 590L657 590M657 588L658 587L657 588M658 480L658 478L658 480M658 486L658 486M658 588L658 588M658 481L658 481M663 524L663 524M665 514L666 513L665 514M665 584L665 584M665 519L665 519M665 578L665 578M666 592L666 592M666 590L666 590M666 519L666 519M666 518L666 518M666 589L667 590L666 589M666 521L666 521M666 583L667 584L666 583M666 518L666 518M667 591L667 591M667 518L667 518M667 521L668 520L667 521M667 519L668 518L667 519M667 522L667 522M669 588L669 588M669 520L669 520M669 622L669 622M671 582L671 582M671 582L671 582M671 622L671 622M671 516L671 516M671 525L671 525M671 514L672 515L671 514M671 581L672 582L671 581M671 621L671 621M672 581L672 581M672 608L672 608M672 515L672 515M672 516L672 516M673 520L672 521L673 520M673 475L673 475M673 607L673 607M673 523L674 522L673 523M673 519L674 518L673 519M673 576L673 576M673 608L674 607L673 608M673 606L674 607L673 606M674 582L674 582M674 605L674 605M674 612L674 612M674 475L674 475M674 608L674 608M674 610L674 610M674 519L675 520L674 519M674 612L674 612M675 474L674 475L675 474M675 520L675 520M675 517L675 517M676 475L675 474L676 475M676 581L676 581M676 475L676 475M676 516L676 516M676 590L676 590M676 576L676 576M676 576L676 576M677 613L677 613M677 585L677 585M677 493L677 493M677 575L677 575M677 473L677 473M678 472L678 472M678 473L678 473M679 472L679 472M679 602L679 602M679 588L679 588M679 588L680 587L679 588M682 470L682 470M682 570L682 570M682 597L682 597M682 581L683 580L682 581M683 579L683 579M683 472L683 472M683 526L683 526M683 472L683 472M683 472L683 472M683 472L683 472M683 592L684 591L683 592M684 594L684 594M684 468L684 468M684 471L684 471M684 496L684 496M684 470L686 470L684 470M684 572L684 572M684 527L684 527M684 525L685 526L684 525M684 589L685 588L684 589M684 592L689 589L690 590L688 592L684 592M685 581L684 582L685 581M685 524L685 524M685 582L685 582M685 581L686 582L685 581M685 528L685 528M686 572L686 572M686 565L686 565M686 588L686 588M686 523L686 523M686 470L686 470M687 472L687 472M687 577L687 577M687 469L687 469M687 472L687 472M687 582L687 582M687 522L687 522M687 471L687 471M687 527L687 527M687 570L687 570M687 574L687 574M687 470L687 470M687 526L688 527L687 526M688 575L688 575M688 561L688 561M688 467L688 467M688 564L688 564M688 469L688 469M688 571L688 571M688 566L688 566M688 560L688 560M689 522L689 522M689 573L689 573M689 526L689 526M689 574L689 574M689 565L689 565M689 566L689 566M689 573L689 573M689 588L690 587L689 588M690 573L690 573M690 573L690 573M690 561L690 561M690 573L690 573M690 582L691 581L690 582M690 526L690 526M690 573L691 572L690 573M690 561L691 560L690 561M690 468L690 468M691 592L691 592M691 587L691 587M691 569L691 569M691 560L691 560M691 564L692 563L691 564M691 521L691 521M691 574L691 574M692 587L692 587M692 563L692 563M692 524L692 524M692 566L692 566M692 595L692 595M692 589L692 589M693 565L693 565M693 522L693 522M693 593L693 593M693 563L693 563M695 585L696 586L695 585M695 584L696 585L695 584M696 571L696 571M696 540L696 540M697 577L697 577M697 573L697 573M697 585L698 584L697 585M699 568L699 568M699 568L699 568M699 568L699 568M699 569L700 568L699 569M700 568L700 568M700 575L701 574L700 575M700 565L700 565M701 480L701 480M701 479L702 480L701 479M701 578L701 578M702 572L702 572M703 576L703 576M704 581L704 581M705 574L705 574M705 579L705 579M705 574L705 574M705 569L707 569L705 569M706 574L706 574M707 568L707 568M707 520L707 520M707 560L708 561L707 560M707 483L707 483M707 580L707 580M708 482L708 484L708 482M708 568L708 568M711 459L709 459L711 459M711 567L711 567M711 566L711 566M712 570L712 570M712 567L713 566L712 567M712 563L712 563M712 572L712 572M713 564L713 564M715 567L715 567M715 564L715 564M715 530L716 529L715 530M716 566L716 566M718 450L718 450M719 450L718 449L719 450M719 451L720 450L719 451M721 450L720 451L721 450M723 311L723 311M724 310L724 310M724 310L725 311L724 310M729 461L729 461M729 444L730 443L729 444M730 460L730 460M730 457L730 457M730 457L730 457M730 440L730 440M731 435L731 435M731 458L730 459L731 458M731 439L731 439M731 440L731 440M731 431L732 430L731 431M731 442L731 442M731 442L731 442M732 431L732 431M733 440L733 440M733 435L733 435M733 437L733 437M734 459L734 459M734 434L733 435L734 434M734 432L734 432M735 432L735 432M735 431L735 431M735 429L735 429M735 345L735 345M736 428L736 428M736 469L736 469M736 428L736 428M737 325L737 325M738 433L738 433M739 323L738 322L739 323M739 472L735 465L734 458L740 448L745 443L747 443L749 445L749 450L745 462L741 467L741 473L739 472M739 322L739 322M739 323L739 323M740 321L740 321M740 296L740 296M740 319L740 319M741 318L741 318M741 319L741 319M742 338L742 338M742 419L742 419M742 423L742 423M742 419L743 418L742 419M743 419L744 418L743 419M745 383L750 386L749 387L743 383L745 383M745 376L745 376M745 466L745 466M746 471L746 471M747 472L747 472M747 386L747 386M747 408L747 408M748 412L748 412M748 388L746 387L748 388M748 387L750 388L748 387M748 399L748 399M748 411L748 411M748 412L749 411L748 412M749 414L749 414M749 399L748 400L749 399M749 388L749 388M749 414L749 414M749 441L749 441M749 447L749 447M749 399L749 399M749 389L750 388L749 389M749 397L749 397M750 408L750 408M750 402L750 402M750 400L750 400M750 398L750 398M750 394L750 394M750 400L750 400M750 400L750 400M751 400L751 400M751 400L751 400M751 398L751 398M751 397L752 398L751 397M751 398L751 398M751 405L751 405M751 403L750 402L751 403M751 403L751 403M751 400L752 401L751 400M752 401L752 401M752 401L752 401M752 403L751 402L752 403M752 401L753 400L753 402L752 401M753 310L753 310M753 400L753 400M753 396L753 396M754 396L754 396M754 310L754 310M754 309L754 309M754 394L754 394M755 310L756 309L755 310M756 399L756 399M756 312L755 311L756 312M756 393L756 393M756 393L756 393M758 306L757 307L758 306M758 307L758 307M759 312L759 312M760 439L762 439L760 439M762 438L762 438M763 437L764 438L763 437M763 440L763 440M763 439L763 439M763 440L763 440M763 304L763 304M770 437L769 438L770 437"/>
        <path class="leaflet-interactive" stroke="#DADBC4" stroke-opacity="0.6" stroke-width="1" stroke-linecap="round"
              stroke-linejoin="round" fill="none"
              d="M490 341L481 338L471 338L463 340L460 345L452 345L445 349L436 348L435 345L431 345L431 347L429 347L427 350L415 348L415 350L413 352L412 351L411 356L409 358L408 357L404 359M554 376L552 376L552 378L549 381L547 381L546 384L543 382L542 385L540 383L537 384L535 382L536 379L535 380L533 378L535 378L533 378L530 375L524 377L519 376L517 374L510 374L505 371L499 371L495 369L489 361L491 361L491 353L489 353L488 350L491 344L487 342L490 341M512 312L505 313L503 315L497 315L496 317L493 318L494 320L496 320L496 325L498 325L503 332L501 332L498 335L498 337L501 338L499 342L493 340L491 342L490 341M587 366L586 367L585 365L583 365L579 361L579 359L580 358L589 361L589 359L591 359L588 356L588 354L592 350L591 349L595 347L594 344L596 344L597 342L595 336L592 333L594 331L588 325L587 326L583 324L574 317L574 319L572 319L564 311L559 312L557 314L552 310L548 310L549 315L546 318L546 320L544 319L542 321L538 318L529 319L527 314L523 315L523 313L518 313L517 310L512 312M544 272L540 275L542 278L540 282L535 284L532 283L524 290L522 294L516 295L514 305L511 309L512 312M607 328L600 324L600 318L604 316L607 311L605 309L606 308L603 307L597 311L593 309L587 311L589 313L587 315L580 312L579 308L569 303L575 295L574 292L566 292L566 294L565 293L562 295L562 293L559 295L559 292L556 290L554 286L555 284L550 271M566 407L564 393L561 388L564 387L560 383L558 377L554 376M587 366L586 371L582 369L583 374L577 376L575 374L574 375L572 371L571 374L564 371L560 361L556 360L554 361L554 363L552 363L552 365L555 368L552 371L553 372L551 372L554 376M558 417L558 415L562 417L562 409L564 411L564 407L566 407M615 421L614 418L610 420L608 418L608 412L604 412L604 415L600 417L601 420L596 425L597 432L594 435L594 433L587 436L587 434L585 434L585 430L579 422L580 421L578 419L576 421L573 418L573 413L570 411L568 413L568 417L566 415L566 407M617 372L616 375L610 375L607 372L608 369L606 365L599 364L596 359L590 363L593 366L588 371L587 366M634 324L631 321L625 319L629 312L627 308L623 309L623 311L622 310L620 314L620 322L618 325L607 328M607 328L609 328L616 335L615 336L617 340L617 345L619 345L619 347L621 347L624 350L624 346L629 343L629 341L625 339L625 333L627 331L631 331M615 421L615 423L611 425L607 425L604 423L602 427L603 432L609 430L610 431L607 440L610 443L612 443L609 448M609 448L609 450L613 450L615 454L620 453L622 455L621 459L620 458L617 461M649 436L648 439L645 438L644 439L646 439L646 441L643 440L642 443L638 441L639 442L635 444L632 443L631 440L621 448L614 445L610 449L609 448M624 414L622 412L618 414L618 416L619 415L623 417L624 419L622 421L615 421M631 331L631 333L638 337L639 336L642 339L642 348L640 350L635 349L635 353L625 351L626 354L624 356L627 359L625 359L626 366L620 366L619 369L621 370L618 373L617 372M641 379L635 379L634 377L632 377L633 376L631 377L629 375L630 374L623 375L621 373L618 374L617 372M647 414L646 417L644 417L640 409L636 409L634 407L632 407L632 411L629 410L627 414L625 414L625 412L624 414M624 414L623 410L619 410L619 408L615 404L619 400L617 398L621 396L623 398L626 397L626 399L629 400L632 397L632 393L637 392L637 388L641 385L639 381L641 379M631 331L631 327L634 324M662 308L662 306L659 309L656 309L654 307L655 308L653 310L652 309L653 310L646 317L646 322L644 322L642 326L634 324M641 379L650 384M650 384L655 389L655 391L649 395L640 395L640 397L642 398L640 402L642 402L645 405L644 406L646 405L647 408M647 408L647 414M685 409L683 409L682 402L678 405L677 402L672 405L668 401L664 401L662 399L658 399L658 403L651 402L651 404L650 403L647 408M649 436L649 434L647 434L649 426L644 427L644 425L646 425L645 424L649 422L647 414M669 448L668 447L665 449L665 445L661 445L665 438L663 438L662 433L658 433L655 437L653 435L651 437L649 436M661 369L659 371L657 369L649 369L651 373L652 372L655 375L651 375L649 377L650 384M651 476L651 477M651 476L655 472L656 473L656 471L659 470L659 468L662 465L664 465L664 459L670 451L669 448M652 488L653 488M654 488L656 487M656 356L655 353L658 346L656 332L660 326L657 323L657 321L660 318L661 313L663 311L662 308M656 356L661 369M656 356L666 354L669 351L670 352L670 350L676 350L682 346L683 339M657 487L658 486M696 387L694 385L691 386L690 383L685 384L683 380L684 379L682 377L680 379L678 377L671 378L667 376L661 369M661 370L661 370M686 294L686 296L676 298L676 300L673 298L668 306L665 305L665 307L662 308M669 448L671 444L675 444L675 446L677 446L678 443L676 443L678 441L682 443L685 441M697 341L694 340L693 342L683 339M683 339L681 335L683 335L683 333L684 334L683 331L686 328L686 324L684 320L682 320L682 316L684 314L683 312L688 311L690 307L689 304L685 302L685 300L686 301L686 299L689 298L686 294M703 402L701 403L697 401L697 403L695 403L692 406L688 406L685 409M685 441L685 437L687 435L685 435L686 432L684 430L684 425L682 423L682 421L687 416L687 412L685 409M685 441L685 443L691 443L691 445L689 445L687 449L689 450L696 447L700 449L699 448L701 446M727 288L720 287L720 279L719 280L717 278L718 277L716 273L710 275L706 281L705 280L702 283L700 281L696 283L696 285L692 285L693 281L689 279L687 285L684 286L686 294M703 356L703 358L706 359L707 362L704 365L700 361L698 363L699 366L697 366L696 369L692 371L695 374L695 376L701 376L701 382L698 383L696 387M703 402L700 396L700 392L702 390L696 387M717 319L712 324L708 324L705 327L704 326L703 329L701 329L701 331L696 336L697 341M703 356L697 356L697 354L695 354L695 352L694 353L692 351L700 343L702 343L702 341L696 345L697 341M701 446L700 443L707 432L706 429L710 427L711 424L709 422L712 421L712 419L715 420L721 416M711 458L708 449L706 449L704 447L705 446L701 446M719 406L719 404L715 404L712 401L710 401L711 402L708 404L707 403L709 401L707 399L703 402M704 356L703 356M728 352L724 352L724 354L721 355L720 358L717 355L715 357L712 356L712 358L708 352L705 353L704 356M731 389L730 390L728 388L724 388L723 387L725 385L723 385L723 383L722 384L720 382L722 380L721 379L723 379L722 376L726 376L727 373L724 372L724 374L720 374L720 372L717 369L719 365L715 365L716 364L713 361L704 356M713 299L711 297L714 294L710 294L706 290L704 292L705 293L699 296L701 298L697 302L697 304L700 307L704 307L706 305L708 306M715 316L712 317L707 314L709 310L708 306M709 305L708 306M709 305L711 305L711 301M711 301L708 302L709 305M711 458L712 459M713 299L711 301M712 460L713 460M713 299L716 302L714 302L714 304L718 310M719 406L725 400L724 399L729 396L727 394L730 393L731 389M719 406L718 409L721 412L721 416M737 426L736 423L732 425L730 421L727 424L724 423L724 416L721 416M727 288L729 286L729 276L734 281L734 283L740 277L741 278L744 275L748 275L750 272L758 272L761 269L763 269L763 265M732 302L732 299L729 296L727 296L727 294L724 293L727 288M741 390L738 393L731 389M739 427L740 427M740 318L742 318M749 385L744 382L743 388L741 390M744 394L741 390M745 394L746 394M761 224L761 226L760 225L758 227L753 220L754 217L768 205L770 211L772 199L776 197L775 189L782 174L776 166L773 168L773 170L758 171L755 162L756 159L752 155L749 158L747 158L747 156L744 154L748 148L746 144M746 394L747 393M748 393L749 393M750 392L751 392M753 392L754 392M755 391L756 391M825 264L820 264L816 258L814 260L814 258L811 260L810 259L808 263L806 263L802 257L801 252L798 255L799 256L796 257L793 251L790 252L791 247L789 245L781 245L779 241L770 242L766 238L766 232L759 233M759 233L758 229L763 227L763 225L762 226L761 224M759 233L756 235L756 239L753 236L750 237L748 235L747 238L750 240L752 244L750 247L752 255L757 254L759 252L762 261L762 263L760 263L763 265M761 224L761 224M761 224L761 224M761 224L761 224M763 265L764 264L769 269L769 271L772 268L773 269L775 277L777 279L778 278L776 280L776 284L778 284L777 285L780 288L778 292L780 292M620 348L621 347L620 348M649 430L650 429L649 430M677 402L677 402"/>
        <path class="leaflet-interactive" stroke="#fff" stroke-opacity="0" stroke-width="2" stroke-linecap="round"
              stroke-linejoin="round" fill="#fff" fill-opacity="0" fill-rule="evenodd"
              id="110000"
              d="M712 295L714 295L709 294L707 290L702 295L699 296L701 298L700 300L697 301L697 304L700 307L704 307L706 305L707 306L709 304L708 301L713 300L711 298L712 295z"/>
        <path class="leaflet-interactive" stroke="#fff" stroke-opacity="0" stroke-width="2" stroke-linecap="round"
              stroke-linejoin="round" fill="#fff" fill-opacity="0" fill-rule="evenodd"
              id="120000"
              d="M716 308L717 307L714 304L714 302L716 302L713 299L711 301L711 305L708 306L709 310L707 314L715 316L717 312L716 311L718 309L715 308zM716 308L716 308z"/>
        <path class="leaflet-interactive" stroke="#fff" stroke-opacity="0" stroke-width="2" stroke-linecap="round"
              stroke-linejoin="round" fill="#fff" fill-opacity="0" fill-rule="evenodd"
              id="130000"
              d="M713 295L711 297L716 302L714 302L714 304L721 313L728 307L728 304L732 302L730 296L728 296L725 293L725 291L728 288L720 287L720 279L719 280L717 278L718 277L716 273L710 275L707 281L701 281L696 283L696 285L693 284L693 281L691 279L689 279L687 285L684 286L684 290L688 298L690 298L685 301L689 303L689 309L685 311L682 316L682 320L685 322L686 325L683 331L684 332L681 336L684 339L693 342L695 340L696 341L696 337L700 333L701 329L704 327L705 328L708 324L712 324L717 319L714 316L710 316L707 314L709 310L707 305L705 307L699 307L697 305L697 302L701 298L699 296L702 295L707 290L709 294L713 295zM711 301L708 302L709 305L711 305L711 301zM716 308L715 308zM724 310L724 311z"/>
        <path class="leaflet-interactive" stroke="#fff" stroke-opacity="0" stroke-width="2" stroke-linecap="round"
              stroke-linejoin="round" fill="#fff" fill-opacity="0" fill-rule="evenodd"
              id="140000"
              d="M656 356L666 354L669 351L670 352L670 350L676 350L682 346L683 339L681 335L684 333L683 332L686 327L685 322L682 319L684 315L683 312L688 311L690 307L689 304L685 301L690 298L688 298L687 294L682 298L679 297L676 298L675 300L673 298L668 306L666 305L663 308L660 318L657 321L657 323L660 326L656 332L658 344L655 353L656 356z"/>
        <path class="leaflet-interactive" stroke="#fff" stroke-opacity="0" stroke-width="2" stroke-linecap="round"
              stroke-linejoin="round" fill="#fff" fill-opacity="0" fill-rule="evenodd"
              id="150000"
              d="M550 271L555 284L553 286L559 292L559 295L563 295L565 293L566 294L566 292L573 292L575 295L574 299L569 303L579 308L579 312L582 312L585 315L587 315L589 313L587 311L592 309L596 311L600 308L605 307L607 311L604 316L600 318L600 324L608 328L617 325L620 322L620 314L622 310L623 311L623 309L626 308L629 311L629 313L625 319L628 321L632 321L632 323L637 324L637 326L642 326L643 323L646 322L645 319L653 310L652 309L653 310L655 308L654 307L656 309L658 309L661 306L663 308L666 305L667 306L673 298L675 300L679 297L682 298L686 296L684 286L687 285L689 279L691 279L693 281L692 284L695 285L700 281L702 283L705 280L706 281L709 279L709 275L713 275L716 273L718 277L717 278L719 280L720 279L720 287L727 288L729 286L729 280L727 278L729 276L734 281L734 283L740 277L741 278L744 275L748 275L754 271L757 272L763 268L763 266L760 263L762 263L762 261L759 252L752 256L750 249L752 245L747 238L748 235L750 237L753 236L756 239L756 235L759 233L758 229L763 227L762 224L760 224L761 225L759 227L757 226L757 224L753 220L754 217L762 212L768 205L770 211L772 199L776 197L775 189L782 174L776 166L773 168L773 170L758 170L755 163L756 158L754 158L751 155L748 158L744 154L748 148L747 145L742 144L734 152L734 154L739 154L740 161L733 168L734 169L729 176L730 177L727 183L729 183L728 186L715 193L707 189L700 205L700 209L698 210L698 213L701 216L704 213L713 216L717 211L722 212L732 222L733 227L731 229L726 228L724 226L716 229L714 228L712 231L708 231L703 237L704 238L699 242L691 242L686 248L682 250L676 249L673 246L668 246L665 254L669 262L661 266L656 272L644 276L633 275L624 278L613 285L610 284L609 282L598 281L594 278L592 279L585 274L564 274L551 272z"/>
        <path class="leaflet-interactive" stroke="#fff" stroke-opacity="0" stroke-width="2" stroke-linecap="round"
              stroke-linejoin="round" fill="#fff" fill-opacity="0" fill-rule="evenodd"
              id="210000"
              d="M762 304L766 304L773 296L774 297L780 292L780 288L777 285L778 284L776 284L776 280L778 278L777 279L775 277L775 273L772 268L769 271L769 268L764 264L762 269L759 270L760 271L753 271L753 273L751 272L748 275L744 275L734 283L734 281L729 276L727 278L729 280L729 285L725 290L725 293L728 296L730 296L732 302L738 299L738 297L743 292L748 292L752 296L749 299L750 300L745 304L746 305L743 307L747 309L747 311L746 310L746 312L745 311L743 315L748 312L749 313L748 312L754 307L762 304zM755 309L755 309zM752 310L752 310zM755 309L756 310L755 309zM756 312L755 311L756 312zM758 306L757 307L758 306zM754 309L754 310zM740 296L740 296zM758 307L758 307zM759 312L759 312zM763 304L764 304z"/>
        <path class="leaflet-interactive" stroke="#fff" stroke-opacity="0" stroke-width="2" stroke-linecap="round"
              stroke-linejoin="round" fill="#fff" fill-opacity="0" fill-rule="evenodd"
              id="220000"
              d="M811 276L813 269L815 269L819 275L819 273L817 272L821 271L824 268L825 265L817 262L817 258L815 260L813 258L809 260L808 263L806 263L802 257L801 252L798 255L799 256L796 257L793 251L790 252L791 247L789 245L781 245L779 241L775 243L773 241L770 242L766 238L766 234L764 232L760 232L756 235L756 239L753 236L750 237L748 235L747 238L750 240L752 245L750 247L752 255L754 256L759 252L762 261L762 263L760 263L762 265L764 264L767 267L768 266L768 269L770 271L772 268L773 269L775 277L777 279L778 278L776 280L776 284L778 284L777 285L780 288L780 292L783 291L789 282L793 286L800 287L798 280L806 280L809 275L811 276z"/>
        <path class="leaflet-interactive" stroke="#fff" stroke-opacity="0" stroke-width="2" stroke-linecap="round"
              stroke-linejoin="round" fill="#fff" fill-opacity="0" fill-rule="evenodd"
              id="230000"
              d="M762 233L766 233L766 237L770 242L773 241L775 243L779 241L781 245L789 245L791 247L790 252L793 251L797 257L799 257L798 254L801 252L802 257L806 263L808 263L808 261L813 258L815 260L817 258L817 262L823 265L824 258L822 249L829 244L838 247L839 246L839 242L846 231L845 230L848 222L847 221L852 216L852 208L855 206L839 210L836 213L835 212L836 213L834 215L823 216L819 211L821 209L818 204L820 201L816 201L809 194L806 195L803 192L797 193L795 191L795 184L793 184L792 177L789 174L790 171L788 171L789 168L787 167L788 166L785 162L786 161L782 153L783 152L779 150L780 149L778 147L772 147L762 141L747 143L746 144L748 148L743 154L746 155L747 158L749 158L752 155L756 159L755 162L758 171L773 170L775 166L782 173L780 181L775 188L776 196L772 198L770 211L768 205L757 216L754 217L753 220L758 227L760 225L761 226L761 224L762 226L763 225L763 227L758 228L759 232L762 233z"/>
        <path class="leaflet-interactive" stroke="#fff" stroke-opacity="0" stroke-width="2" stroke-linecap="round"
              stroke-linejoin="round" fill="#fff" fill-opacity="0" fill-rule="evenodd"
              id="310000"
              d="M741 390L745 394L750 391L745 386L743 386L741 390zM749 385L744 382L743 383L746 386L750 386zM748 388L746 386L748 388zM748 387L751 388L748 387zM747 386L746 386zM749 389L749 388zM749 388L749 388z"/>
        <path class="leaflet-interactive" stroke="#fff" stroke-opacity="0" stroke-width="2" stroke-linecap="round"
              stroke-linejoin="round" fill="#fff" fill-opacity="0" fill-rule="evenodd"
              id="320000"
              d="M712 357L711 358L708 353L704 355L711 361L714 361L716 365L718 365L717 370L719 370L721 374L725 372L727 374L726 377L722 375L723 378L720 382L722 384L723 383L723 385L725 385L723 388L729 388L728 389L732 389L738 393L745 385L743 384L744 382L749 385L749 382L741 374L737 361L729 355L727 351L724 352L721 358L719 358L717 355L715 357L712 357z"/>
        <path class="leaflet-interactive" stroke="#fff" stroke-opacity="0" stroke-width="2" stroke-linecap="round"
              stroke-linejoin="round" fill="#fff" fill-opacity="0" fill-rule="evenodd"
              id="330000"
              d="M721 416L724 417L724 423L727 424L731 421L732 424L736 423L738 426L739 422L743 420L742 417L743 418L747 416L747 408L750 407L748 403L751 401L747 400L742 395L744 393L741 390L738 393L732 389L730 393L727 394L729 396L726 397L724 399L725 400L718 407L718 409L721 412L721 415zM751 400L752 401L752 399L750 398L751 400zM751 398L751 399zM752 403L752 403zM753 393L753 393zM751 397L752 398L751 397zM752 398L752 397zM750 408L750 407zM753 401L753 401zM753 396L753 396zM748 411L749 411zM752 401L752 402zM748 408L748 408zM743 422L743 422zM749 393L750 394L749 393zM749 414L749 414zM751 403L750 402L751 403zM753 400L753 401zM754 394L754 394zM749 414L749 414zM750 398L750 398zM753 400L753 400zM748 400L749 399L748 400zM742 423L742 423zM749 407L750 408L749 407zM750 402L750 403zM749 399L749 399zM749 397L749 397zM751 400L751 400zM752 403L752 402zM743 420L743 420zM756 399L756 399zM752 397L752 397zM752 401L752 401zM756 393L756 393zM742 419L743 418L742 419zM743 419L744 418L743 419zM753 400L753 400zM756 393L756 393zM751 400L752 400zM750 400L750 400zM742 419L742 418zM753 401L753 401zM751 400L751 400z"/>
        <path class="leaflet-interactive" stroke="#fff" stroke-opacity="0" stroke-width="2" stroke-linecap="round"
              stroke-linejoin="round" fill="#fff" fill-opacity="0" fill-rule="evenodd"
              id="340000"
              d="M706 362L707 363L703 365L699 361L699 366L697 366L696 369L692 371L695 374L695 376L701 376L701 383L699 383L696 386L700 390L702 390L699 394L703 402L706 401L706 399L709 401L707 403L708 404L711 401L713 401L714 404L721 405L725 400L724 399L729 396L727 394L729 394L731 390L728 389L729 388L723 388L725 386L721 382L723 378L722 375L726 377L727 374L725 372L721 374L719 370L717 370L719 365L715 365L716 363L714 361L710 361L705 356L703 357L704 359L706 359L706 362zM724 386L725 386zM707 403L707 403zM697 377L697 377z"/>
        <path class="leaflet-interactive" stroke="#fff" stroke-opacity="0" stroke-width="2" stroke-linecap="round"
              stroke-linejoin="round" fill="#fff" fill-opacity="0" fill-rule="evenodd"
              id="350000"
              d="M726 446L725 443L727 445L726 444L729 443L727 443L727 441L733 441L729 439L731 439L731 435L733 433L731 431L733 431L733 429L734 430L732 432L735 431L734 430L737 427L737 425L732 425L730 421L728 424L725 423L723 415L720 416L720 418L716 420L713 419L710 422L711 424L706 429L707 432L705 436L702 438L700 446L704 446L706 448L705 449L708 448L709 455L712 458L719 452L718 449L722 450L724 448L723 447L726 446zM721 450L720 451L721 450zM729 444L730 443L729 444zM730 440L730 440zM733 435L733 434zM719 451L719 450zM733 430L733 430zM719 450L718 449L719 450zM733 435L733 435zM731 435L730 435zM734 432L734 432zM731 440L731 439zM732 431L732 431zM735 431L735 431zM736 428L736 428zM735 429L735 429zM731 431L732 430L731 431z"/>
        <path class="leaflet-interactive" stroke="#fff" stroke-opacity="0" stroke-width="2" stroke-linecap="round"
              stroke-linejoin="round" fill="#fff" fill-opacity="0" fill-rule="evenodd"
              id="360000"
              d="M719 406L718 404L714 404L713 401L711 401L708 404L707 403L709 401L707 399L701 403L697 401L697 403L695 403L692 406L688 406L685 409L687 411L687 416L683 420L682 424L684 424L683 427L686 432L685 434L687 434L685 442L691 443L687 448L689 450L696 447L699 449L700 448L702 439L707 432L706 429L711 425L710 422L713 419L716 420L721 417L721 413L718 409L719 406z"/>
        <path class="leaflet-interactive" stroke="#fff" stroke-opacity="0" stroke-width="2" stroke-linecap="round"
              stroke-linejoin="round" fill="#fff" fill-opacity="0" fill-rule="evenodd"
              id="370000"
              d="M704 356L705 353L708 352L711 357L715 357L717 355L720 358L722 355L724 355L723 354L725 352L729 351L729 349L736 342L736 340L736 342L739 341L740 338L741 339L740 336L741 337L749 333L752 334L755 328L745 328L745 326L739 324L735 325L736 326L732 329L732 331L728 331L725 327L728 326L728 324L725 321L722 322L717 319L712 324L708 324L705 327L704 326L704 328L703 327L704 328L701 329L701 331L696 336L696 345L702 341L702 343L700 343L692 351L699 357L704 356zM739 323L740 323zM739 322L739 322zM742 338L741 338zM740 321L740 320zM741 319L741 318zM735 345L735 344zM739 323L738 322zM740 319L740 319zM746 326L746 326zM746 326L746 326zM746 326L746 326zM697 343L697 343z"/>
        <path class="leaflet-interactive" stroke="#fff" stroke-opacity="0" stroke-width="2" stroke-linecap="round"
              stroke-linejoin="round" fill="#fff" fill-opacity="0" fill-rule="evenodd"
              id="410000"
              d="M675 378L678 377L681 379L683 377L685 384L690 384L691 386L694 385L696 387L697 384L701 383L701 377L697 377L695 373L692 372L696 370L699 361L703 365L707 363L703 356L697 356L697 354L695 354L694 352L693 353L692 350L702 342L697 343L696 345L697 342L695 340L693 342L684 339L682 346L677 350L670 349L669 352L656 357L663 373L670 378L674 378zM683 378L683 379z"/>
        <path class="leaflet-interactive" stroke="#fff" stroke-opacity="0" stroke-width="2" stroke-linecap="round"
              stroke-linejoin="round" fill="#fff" fill-opacity="0" fill-rule="evenodd"
              id="420000"
              d="M662 370L649 370L652 373L654 373L653 376L650 375L649 379L650 384L654 387L655 391L648 395L640 395L642 398L640 402L642 402L645 405L644 406L646 405L647 408L648 405L650 403L651 404L651 402L658 403L658 399L668 401L671 404L675 404L677 402L678 405L682 401L682 407L684 409L687 406L693 406L692 405L698 401L701 403L702 402L702 398L700 396L700 392L702 390L698 389L694 385L691 386L690 383L685 384L683 378L670 378L667 375L666 376L662 370zM646 395L646 395zM662 370L662 370zM675 378L675 378zM676 402L677 402z"/>
        <path class="leaflet-interactive" stroke="#fff" stroke-opacity="0" stroke-width="2" stroke-linecap="round"
              stroke-linejoin="round" fill="#fff" fill-opacity="0" fill-rule="evenodd"
              id="430000"
              d="M669 448L671 444L675 444L675 446L677 446L676 443L678 441L682 443L685 440L685 436L687 435L685 435L686 432L684 430L684 424L682 424L682 422L683 419L686 418L685 417L687 415L687 411L684 408L683 409L682 402L678 405L677 402L675 404L671 404L668 401L657 399L657 403L649 403L647 407L647 418L649 422L647 424L646 423L646 425L643 427L648 426L650 428L650 430L648 430L647 433L652 438L652 435L656 437L658 434L664 434L663 437L665 437L661 446L665 444L665 448L669 447zM649 430L649 430z"/>
        <path class="leaflet-interactive" stroke="#fff" stroke-opacity="0" stroke-width="2" stroke-linecap="round"
              stroke-linejoin="round" fill="#fff" fill-opacity="0" fill-rule="evenodd"
              id="440000"
              d="M682 470L683 466L689 468L690 465L692 467L695 464L697 466L699 464L705 464L708 461L708 459L711 458L708 448L705 449L706 448L704 446L700 446L700 449L698 449L697 447L689 450L687 448L691 444L690 442L685 443L685 441L679 441L677 443L676 442L678 444L676 446L674 444L670 445L671 446L669 448L669 454L664 459L665 462L662 466L659 467L658 470L656 470L655 473L654 472L652 475L651 474L652 477L650 481L652 487L656 487L658 485L655 482L657 478L669 475L671 473L679 473L682 470zM710 459L710 459zM676 474L675 475L676 474zM673 475L674 475zM687 471L687 471zM657 479L658 480L658 478L657 479zM673 475L673 474zM657 480L655 480L658 480zM683 472L683 472zM683 472L683 472zM678 473L678 473zM684 468L684 468zM687 472L687 472zM687 472L686 472zM708 482L709 483L707 484L709 484L708 482zM677 473L677 473zM656 483L656 483zM658 481L658 481zM658 486L658 486zM701 479L702 480L701 479zM701 480L701 480zM700 465L700 465zM700 465L700 465z"/>
        <path class="leaflet-interactive" stroke="#fff" stroke-opacity="0" stroke-width="2" stroke-linecap="round"
              stroke-linejoin="round" fill="#fff" fill-opacity="0" fill-rule="evenodd"
              id="450000"
              d="M649 436L648 439L645 438L644 439L646 439L644 441L643 440L642 443L641 441L639 441L638 444L636 444L630 440L628 444L621 448L614 445L611 449L609 449L616 454L621 453L623 455L622 458L620 458L617 461L620 464L625 463L627 465L625 469L627 470L626 472L637 476L642 474L645 475L645 477L647 477L650 475L651 476L651 474L652 475L655 472L656 473L656 471L659 470L659 468L665 463L665 457L669 455L668 453L670 451L668 447L665 449L664 444L662 446L661 445L665 438L663 438L663 434L658 434L655 437L653 435L652 438L649 436zM614 446L614 446zM646 480L646 480z"/>
        <path class="leaflet-interactive" stroke="#fff" stroke-opacity="0" stroke-width="2" stroke-linecap="round"
              stroke-linejoin="round" fill="#fff" fill-opacity="0" fill-rule="evenodd"
              id="460000"
              d="M654 489L647 490L642 495L642 501L644 503L650 505L658 499L658 496L662 492L659 488L654 488zM671 622L671 622zM679 588L680 587zM669 622L669 622zM665 514L666 513L665 514zM715 530L715 529zM671 621L671 621zM667 521L668 521zM666 521L667 521zM684 592L688 592L690 590L689 589L685 592zM685 581L686 582L685 581zM685 582L685 582zM669 520L669 520zM667 519L668 518L667 519zM671 582L671 582zM684 594L684 594zM687 582L687 582zM671 514L672 515L671 514zM691 569L691 569zM700 575L700 574zM690 573L691 572zM683 592L684 591zM649 594L651 592L653 593L649 593zM704 581L704 581zM673 523L674 522L673 523zM674 582L674 582zM689 565L690 565zM673 520L673 520zM705 569L706 569zM672 515L672 515zM665 519L666 519zM697 573L698 573zM691 587L691 587zM689 588L690 587zM695 585L696 586L695 585zM684 589L685 588zM697 577L697 577zM705 579L705 579zM682 581L683 580L682 581zM691 564L692 563L691 564zM690 561L690 560zM693 565L693 565zM666 519L666 519zM685 581L685 582zM653 590L653 589zM707 560L708 561L707 560zM667 518L667 518zM673 519L674 518L673 519zM667 522L668 522zM684 572L684 571zM692 587L692 587zM706 574L706 575zM696 571L696 571zM708 568L708 568zM691 521L691 521zM701 578L701 578zM683 579L683 579zM691 592L691 592zM689 566L690 566zM716 566L716 566zM687 570L687 570zM691 560L691 560zM707 568L707 568zM657 588L658 587L657 588zM665 584L665 584zM695 584L696 584zM679 588L679 588zM686 565L686 565zM712 570L712 569zM687 522L687 522zM658 588L658 588zM697 585L698 584zM666 592L666 592zM666 583L667 583zM657 590L657 590zM672 581L672 581zM705 574L705 574zM669 588L669 588zM689 526L689 526zM693 563L694 563zM686 523L686 523zM702 572L702 571zM712 567L712 566zM692 595L692 595zM676 581L676 581zM667 591L667 591zM671 582L671 582zM673 606L674 606zM690 582L690 581zM692 589L692 588zM677 585L677 585zM682 597L682 597zM707 520L707 520zM712 572L712 571zM677 493L677 493zM689 522L689 522zM684 496L684 496zM674 612L675 612zM666 589L666 589zM671 581L672 581zM676 590L677 590zM674 608L674 608zM673 608L673 607zM696 540L696 540zM682 570L682 570zM684 527L684 527zM677 613L677 613zM674 612L674 612zM672 608L672 608zM671 516L671 516zM671 525L671 525zM674 610L674 610zM673 607L673 607zM679 602L679 602zM703 576L703 576zM693 593L693 592zM666 590L666 590zM685 524L685 524zM693 522L693 523zM707 580L707 580zM674 519L675 519zM663 490L663 490zM699 569L700 569zM711 566L711 567zM675 520L675 520zM700 568L700 568zM673 576L674 576zM690 526L690 526zM712 563L712 564zM715 564L715 564zM687 577L687 577zM691 574L691 575zM674 605L674 605z"/>
        <path class="leaflet-interactive" stroke="#fff" stroke-opacity="0" stroke-width="2" stroke-linecap="round"
              stroke-linejoin="round" fill="#fff" fill-opacity="0" fill-rule="evenodd"
              id="500000"
              d="M624 414L625 411L626 414L630 410L631 411L633 407L635 407L636 410L640 408L640 412L642 412L642 414L645 417L648 413L648 409L646 405L644 405L644 403L640 402L642 398L640 396L642 396L643 394L646 395L654 392L655 389L653 386L651 384L647 384L645 381L641 379L641 381L639 381L641 385L637 389L638 388L636 393L632 393L633 394L629 400L627 400L626 397L623 398L619 396L619 398L617 398L619 400L616 406L619 407L619 409L621 409L624 413zM646 394L646 395zM618 399L618 399zM646 395L646 395zM629 400L629 400z"/>
        <path class="leaflet-interactive" stroke="#fff" stroke-opacity="0" stroke-width="2" stroke-linecap="round"
              stroke-linejoin="round" fill="#fff" fill-opacity="0" fill-rule="evenodd"
              id="510000"
              d="M582 426L587 436L596 433L596 425L601 420L601 416L602 417L604 415L603 414L607 412L607 416L609 416L607 418L609 420L615 418L616 421L623 421L623 417L619 415L618 416L618 414L621 411L624 414L623 410L619 410L619 408L615 404L619 401L618 398L617 399L620 396L623 398L626 397L626 399L629 400L633 393L637 392L637 388L641 385L639 381L641 381L641 379L637 379L634 377L633 378L633 376L630 377L629 374L622 375L622 373L620 373L618 375L617 372L616 375L610 375L607 372L608 369L606 365L599 364L596 359L591 362L593 366L588 371L587 366L586 371L582 369L583 374L577 376L575 374L574 375L572 371L571 374L564 371L560 361L554 361L552 365L555 368L552 370L553 371L551 373L559 379L563 387L561 389L564 393L566 414L568 417L568 413L570 411L574 415L573 418L576 421L578 419L582 426zM623 398L623 398zM629 399L629 399zM617 398L617 398z"/>
        <path class="leaflet-interactive" stroke="#fff" stroke-opacity="0" stroke-width="2" stroke-linecap="round"
              stroke-linejoin="round" fill="#fff" fill-opacity="0" fill-rule="evenodd"
              id="520000"
              d="M647 414L646 417L644 417L643 414L642 415L642 413L640 412L640 408L636 410L636 408L633 407L632 410L630 410L626 414L625 411L624 414L621 411L618 414L618 416L619 415L623 417L623 420L617 420L614 424L611 425L608 423L606 425L604 423L602 427L603 432L610 431L607 440L610 443L612 443L609 447L611 449L615 445L621 449L623 447L622 446L628 444L630 440L632 441L632 443L637 444L639 442L638 441L642 442L642 440L644 441L646 439L644 439L645 438L648 439L649 434L647 434L647 430L649 430L649 426L644 427L646 425L645 424L649 422L647 414zM649 429L649 429zM649 430L650 430z"/>
        <path class="leaflet-interactive" stroke="#fff" stroke-opacity="0" stroke-width="2" stroke-linecap="round"
              stroke-linejoin="round" fill="#fff" fill-opacity="0" fill-rule="evenodd"
              id="530000"
              d="M615 421L613 417L612 419L609 420L607 418L609 416L607 416L608 413L604 413L604 415L602 417L601 416L600 421L596 425L597 432L594 435L594 433L588 436L581 426L579 422L580 421L578 419L576 421L573 418L574 415L570 411L568 413L568 417L566 415L566 407L564 407L564 411L562 409L561 412L563 415L561 417L559 415L558 416L559 423L562 422L563 425L563 435L561 435L562 437L554 445L555 446L553 450L555 452L553 454L554 455L558 453L564 453L562 455L564 458L563 459L565 462L569 462L566 470L571 471L575 476L579 476L581 474L583 476L582 477L586 479L587 474L585 469L587 467L590 468L593 465L597 468L600 465L604 467L607 464L608 466L612 464L611 463L614 460L617 461L620 458L622 458L623 455L621 453L616 454L613 450L609 450L611 445L611 443L608 440L610 431L608 430L604 432L602 429L604 423L606 425L608 423L612 425L615 422z"/>
        <path class="leaflet-interactive" stroke="#fff" stroke-opacity="0" stroke-width="2" stroke-linecap="round"
              stroke-linejoin="round" fill="#fff" fill-opacity="0" fill-rule="evenodd"
              id="540000"
              d="M490 341L481 338L471 338L463 340L460 345L459 344L457 346L454 344L445 349L436 348L435 345L431 345L431 347L429 347L427 350L415 348L415 350L413 352L412 351L411 356L409 358L405 358L401 362L401 366L406 373L405 378L403 378L402 375L399 376L399 380L402 382L402 388L405 391L408 390L413 395L414 394L418 396L422 400L424 396L429 397L441 408L443 406L446 407L445 408L450 413L453 412L455 416L458 415L460 419L462 417L462 419L466 417L469 420L477 420L479 418L483 418L482 423L484 425L491 416L499 418L501 420L503 418L505 422L509 424L510 429L521 428L527 422L532 421L535 419L535 417L538 416L542 416L549 420L552 418L551 417L553 413L558 417L558 415L562 417L562 409L564 411L564 407L566 407L564 398L565 397L563 390L561 388L564 387L560 383L558 377L551 376L552 379L551 378L550 381L546 381L547 384L543 382L542 385L540 383L537 384L535 382L536 379L533 379L534 378L529 375L521 377L516 374L510 374L505 371L499 371L495 369L489 362L491 360L491 353L489 353L488 350L491 344L487 342L490 341z"/>
        <path class="leaflet-interactive" stroke="#fff" stroke-opacity="0" stroke-width="2" stroke-linecap="round"
              stroke-linejoin="round" fill="#fff" fill-opacity="0" fill-rule="evenodd"
              id="610000"
              d="M656 356L655 353L658 346L656 332L660 326L657 320L661 316L661 312L663 309L662 306L658 309L654 307L655 308L653 310L652 309L653 310L646 317L646 322L644 322L642 326L638 326L635 323L631 327L631 333L638 337L639 336L642 339L642 349L635 349L635 353L625 351L626 354L624 356L627 359L625 359L626 361L624 363L626 366L620 366L619 369L621 370L619 373L617 373L621 373L623 375L629 374L630 377L633 376L633 378L634 377L637 380L640 379L650 384L649 377L651 375L655 375L652 372L651 373L651 371L649 370L658 369L659 371L661 369L656 356zM661 367L661 367zM622 374L622 374z"/>
        <path class="leaflet-interactive" stroke="#fff" stroke-opacity="0" stroke-width="2" stroke-linecap="round"
              stroke-linejoin="round" fill="#fff" fill-opacity="0" fill-rule="evenodd"
              id="620000"
              d="M625 345L624 350L620 348L621 347L619 347L616 344L616 334L609 328L604 327L602 324L600 324L600 318L604 316L607 311L605 307L600 308L597 311L592 309L589 310L589 313L587 315L580 312L579 308L577 308L571 303L568 303L573 299L575 295L574 292L566 292L566 294L565 293L562 295L562 293L559 295L559 292L556 290L554 286L554 280L550 271L542 273L540 275L542 278L541 281L535 284L532 283L524 290L522 294L516 295L514 305L511 309L512 312L514 310L518 310L518 313L522 313L524 315L527 314L529 318L538 318L542 321L544 319L546 320L546 318L549 315L549 310L558 314L559 311L561 313L563 311L566 312L565 313L572 319L574 320L574 317L577 320L578 319L582 324L590 326L597 342L588 354L588 356L591 359L587 361L580 358L579 359L582 365L587 367L588 366L588 370L591 369L590 368L592 368L593 366L590 362L592 362L595 359L598 361L599 364L606 365L608 369L607 372L610 375L616 375L617 372L620 372L620 366L626 366L625 359L627 359L624 356L626 354L625 351L634 353L636 352L634 350L635 349L641 350L641 344L643 342L642 338L633 334L630 331L626 331L626 335L624 337L625 340L629 342L628 345L626 345zM621 347L622 347zM595 339L596 339zM622 348L622 348zM625 345L625 345z"/>
        <path class="leaflet-interactive" stroke="#fff" stroke-opacity="0" stroke-width="2" stroke-linecap="round"
              stroke-linejoin="round" fill="#fff" fill-opacity="0" fill-rule="evenodd"
              id="630000"
              d="M595 339L595 335L589 325L588 326L586 324L582 324L580 320L579 321L574 317L574 319L572 319L564 311L562 311L561 313L559 311L557 314L552 310L548 310L549 315L546 318L546 320L544 319L542 321L538 318L529 319L527 314L524 315L522 313L518 313L518 311L515 310L503 315L498 315L493 318L494 320L497 319L496 325L503 331L498 334L498 336L501 337L501 340L499 342L493 340L491 342L487 342L491 344L488 349L488 351L491 354L491 360L489 362L495 369L499 371L502 370L510 374L519 375L521 377L529 375L536 380L535 382L537 384L540 383L542 385L543 382L547 384L546 381L547 382L550 381L551 378L552 379L551 376L553 376L552 371L554 368L552 364L555 360L560 362L563 369L567 373L570 374L572 372L574 374L573 375L576 374L578 376L583 374L582 369L585 369L586 371L587 367L583 365L579 360L581 358L586 361L591 359L588 356L588 354L592 350L591 349L595 347L594 345L597 342L596 339z"/>
        <path class="leaflet-interactive" stroke="#fff" stroke-opacity="0" stroke-width="2" stroke-linecap="round"
              stroke-linejoin="round" fill="#fff" fill-opacity="0" fill-rule="evenodd"
              id="640000"
              d="M631 331L631 327L634 324L631 321L625 319L629 312L627 308L623 309L623 311L622 310L620 314L620 322L618 325L607 328L609 328L616 335L615 336L617 340L617 345L619 345L619 347L621 347L624 350L624 345L628 345L629 342L625 339L625 333L627 331L631 331zM621 347L621 348zM622 348L622 348z"/>
        <path class="leaflet-interactive" stroke="#fff" stroke-opacity="0" stroke-width="2" stroke-linecap="round"
              stroke-linejoin="round" fill="#fff" fill-opacity="0" fill-rule="evenodd"
              id="650000"
              d="M544 272L540 267L537 258L535 258L536 255L532 255L520 247L510 247L504 245L503 246L501 244L500 245L498 240L501 235L499 232L501 228L500 224L498 224L494 215L488 211L485 212L481 210L481 208L476 204L477 203L474 202L474 197L472 199L467 198L467 202L462 207L460 206L456 210L458 219L456 223L452 225L443 224L436 221L430 239L430 241L433 243L432 245L427 244L426 242L424 244L417 246L416 245L411 248L415 251L415 257L418 264L418 267L415 269L416 270L413 273L414 278L409 282L397 287L396 289L394 289L394 291L387 291L382 298L379 297L377 299L377 295L373 297L370 296L371 298L369 298L366 301L365 300L362 303L363 306L360 307L361 312L362 311L361 314L364 317L365 315L370 317L372 325L371 326L373 328L371 330L367 330L378 335L380 337L379 342L382 344L383 343L391 348L396 347L396 351L398 353L397 355L403 359L411 357L412 352L415 350L415 348L427 350L432 345L434 345L437 348L442 349L454 344L456 346L459 345L464 340L468 340L471 338L481 338L491 342L493 340L499 342L501 338L498 335L503 331L497 325L497 319L494 320L493 317L511 312L516 295L522 294L526 288L532 283L534 283L535 285L537 282L539 282L542 278L540 275L542 273z"/>
        <path class="leaflet-interactive" stroke="#fff" stroke-opacity="0" stroke-width="2" stroke-linecap="round"
              stroke-linejoin="round" fill="#fff" fill-opacity="0" fill-rule="evenodd"
              id="Taiwan"
              d="M737 468L740 473L741 467L745 462L749 450L749 444L743 444L738 450L736 456L734 457L736 467zM770 437L770 437zM761 439L762 438L761 439zM731 458L730 459zM763 437L763 437zM730 457L729 458L730 457zM730 460L730 460zM730 457L730 457zM750 440L750 440zM745 466L746 466zM746 471L746 471zM750 441L751 441zM729 461L729 461zM736 469L737 469z"/>
        <path class="leaflet-interactive" stroke="#fff" stroke-opacity="0" stroke-width="2" stroke-linecap="round"
              stroke-linejoin="round" fill="#fff" fill-opacity="0" fill-rule="evenodd"
              d="M686 467L686 469L684 469L685 470L689 468L686 467zM686 470L687 470zM688 468L688 468zM688 468L688 468zM688 468L688 468zM688 469L688 469zM688 468L688 468zM688 469L688 469zM688 469L688 469z"/>
        <path class="leaflet-interactive" stroke="#fff" stroke-opacity="0" stroke-width="2" stroke-linecap="round"
              stroke-linejoin="round" fill="#fff" fill-opacity="0" fill-rule="evenodd"
              d="M682 471L682 470zM682 470L682 470z"/>
        <path class="leaflet-interactive" stroke="#fff" stroke-opacity="0" stroke-width="2" stroke-linecap="round"
              stroke-linejoin="round" fill="#fff" fill-opacity="0" fill-rule="evenodd"
              d="M754 459L756 449L754 459zM743 482L749 474L743 482zM729 506L734 497L729 506zM726 531L726 522L726 531zM723 563L722 565L725 556L724 559zM698 596L703 589L698 596zM672 625L668 626L676 623L673 624zM639 604L640 605L639 597L639 604zM654 561L656 558L656 554L655 560zM652 529L648 521L651 527z"/>
    </g>
</svg>
