<svg id="svg" version="1.1" xmlns="http://www.w3.org/2000/svg" xmlns:xlink="http://www.w3.org/1999/xlink" width="400" height="382.8571428571429" viewBox="0, 0, 400,382.8571428571429"><g id="svgg"><path id="path0" d="M188.222 12.781 C 188.894 12.841,189.922 12.841,190.508 12.779 C 191.093 12.718,190.543 12.668,189.286 12.669 C 188.029 12.670,187.550 12.721,188.222 12.781 M198.500 12.781 C 199.168 12.841,200.261 12.841,200.929 12.781 C 201.596 12.720,201.050 12.671,199.714 12.671 C 198.379 12.671,197.832 12.720,198.500 12.781 M182.503 13.059 C 182.859 13.128,183.373 13.125,183.646 13.053 C 183.919 12.982,183.629 12.926,183.000 12.929 C 182.371 12.932,182.148 12.991,182.503 13.059 M205.646 13.059 C 206.002 13.128,206.516 13.125,206.789 13.053 C 207.062 12.982,206.771 12.926,206.143 12.929 C 205.514 12.932,205.291 12.991,205.646 13.059 M178.643 13.340 C 178.918 13.412,179.368 13.412,179.643 13.340 C 179.918 13.268,179.693 13.209,179.143 13.209 C 178.593 13.209,178.368 13.268,178.643 13.340 M186.647 49.348 C 187.081 49.414,187.724 49.412,188.075 49.344 C 188.427 49.276,188.071 49.222,187.286 49.225 C 186.500 49.227,186.212 49.282,186.647 49.348 M201.218 49.348 C 201.653 49.414,202.295 49.412,202.647 49.344 C 202.998 49.276,202.643 49.222,201.857 49.225 C 201.071 49.227,200.784 49.282,201.218 49.348 M182.357 49.626 C 182.632 49.697,183.082 49.697,183.357 49.626 C 183.632 49.554,183.407 49.495,182.857 49.495 C 182.307 49.495,182.082 49.554,182.357 49.626 M314.857 58.661 C 314.857 58.710,315.275 59.128,315.786 59.589 L 316.714 60.429 315.875 59.500 C 315.093 58.634,314.857 58.440,314.857 58.661 M70.418 62.357 L 69.000 63.857 70.500 62.439 C 71.894 61.122,72.131 60.857,71.918 60.857 C 71.873 60.857,71.198 61.532,70.418 62.357 M321.571 65.143 C 323.137 66.714,324.482 68.000,324.561 68.000 C 324.639 68.000,323.423 66.714,321.857 65.143 C 320.292 63.571,318.946 62.286,318.868 62.286 C 318.789 62.286,320.006 63.571,321.571 65.143 M63.846 68.929 L 62.429 70.429 63.929 69.011 C 65.322 67.693,65.560 67.429,65.346 67.429 C 65.301 67.429,64.626 68.104,63.846 68.929 M60.411 72.643 L 59.571 73.571 60.500 72.732 C 61.366 71.950,61.560 71.714,61.339 71.714 C 61.290 71.714,60.872 72.132,60.411 72.643 M292.857 88.143 C 293.390 88.693,293.891 89.143,293.969 89.143 C 294.048 89.143,293.676 88.693,293.143 88.143 C 292.610 87.593,292.109 87.143,292.031 87.143 C 291.952 87.143,292.324 87.593,292.857 88.143 M298.571 93.857 C 299.425 94.721,300.188 95.429,300.266 95.429 C 300.345 95.429,299.711 94.721,298.857 93.857 C 298.004 92.993,297.241 92.286,297.162 92.286 C 297.084 92.286,297.718 92.993,298.571 93.857 M88.556 95.929 L 87.571 97.000 88.643 96.015 C 89.640 95.099,89.846 94.857,89.627 94.857 C 89.580 94.857,89.098 95.339,88.556 95.929 M193.500 101.924 C 194.246 101.983,195.468 101.983,196.214 101.924 C 196.961 101.865,196.350 101.817,194.857 101.817 C 193.364 101.817,192.754 101.865,193.500 101.924 M187.646 102.202 C 188.002 102.270,188.516 102.268,188.789 102.196 C 189.062 102.125,188.771 102.069,188.143 102.072 C 187.514 102.075,187.291 102.134,187.646 102.202 M200.929 102.197 C 201.204 102.269,201.654 102.269,201.929 102.197 C 202.204 102.125,201.979 102.066,201.429 102.066 C 200.879 102.066,200.654 102.125,200.929 102.197 M132.286 126.714 C 131.592 127.421,131.088 128.000,131.167 128.000 C 131.245 128.000,131.877 127.421,132.571 126.714 C 133.265 126.007,133.769 125.429,133.690 125.429 C 133.612 125.429,132.980 126.007,132.286 126.714 M127.985 131.071 L 127.000 132.143 128.071 131.158 C 128.661 130.617,129.143 130.135,129.143 130.087 C 129.143 129.869,128.901 130.074,127.985 131.071 M191.504 138.491 C 191.938 138.556,192.581 138.555,192.932 138.487 C 193.284 138.419,192.929 138.365,192.143 138.367 C 191.357 138.370,191.070 138.425,191.504 138.491 M196.932 138.491 C 197.367 138.556,198.010 138.555,198.361 138.487 C 198.712 138.419,198.357 138.365,197.571 138.367 C 196.786 138.370,196.498 138.425,196.932 138.491 M231.143 152.089 C 231.143 152.139,231.561 152.556,232.071 153.018 L 233.000 153.857 232.161 152.929 C 231.379 152.063,231.143 151.869,231.143 152.089 M156.129 154.357 L 155.000 155.571 156.214 154.442 C 156.882 153.821,157.429 153.274,157.429 153.228 C 157.429 153.012,157.180 153.228,156.129 154.357 M234.559 155.500 C 235.260 156.246,235.871 156.857,235.917 156.857 C 236.131 156.857,235.904 156.601,234.643 155.417 L 233.286 154.143 234.559 155.500 M189.000 162.617 C 163.509 167.396,155.119 200.053,175.246 216.157 C 194.196 231.319,222.105 219.532,224.567 195.328 C 226.558 175.759,208.328 158.994,189.000 162.617 M15.209 178.286 C 15.209 178.836,15.268 179.061,15.340 178.786 C 15.412 178.511,15.412 178.061,15.340 177.786 C 15.268 177.511,15.209 177.736,15.209 178.286 M278.143 178.286 L 277.286 178.504 278.214 178.538 C 278.725 178.556,279.143 178.443,279.143 178.286 C 279.143 178.129,279.111 178.015,279.071 178.034 C 279.032 178.052,278.614 178.166,278.143 178.286 M374.072 179.286 C 374.075 179.914,374.134 180.138,374.202 179.782 C 374.270 179.427,374.268 178.913,374.196 178.640 C 374.125 178.366,374.069 178.657,374.072 179.286 M262.630 178.783 C 263.684 178.838,265.484 178.838,266.630 178.784 C 267.777 178.729,266.914 178.685,264.714 178.684 C 262.514 178.684,261.577 178.728,262.630 178.783 M248.793 179.067 C 249.465 179.127,250.494 179.126,251.079 179.065 C 251.664 179.003,251.114 178.954,249.857 178.955 C 248.600 178.956,248.121 179.006,248.793 179.067 M130.929 181.069 C 131.989 181.124,133.725 181.124,134.786 181.069 C 135.846 181.014,134.979 180.969,132.857 180.969 C 130.736 180.969,129.868 181.014,130.929 181.069 M51.495 182.000 C 51.495 182.550,51.554 182.775,51.626 182.500 C 51.697 182.225,51.697 181.775,51.626 181.500 C 51.554 181.225,51.495 181.450,51.495 182.000 M114.345 181.354 C 115.398 181.409,117.198 181.410,118.345 181.355 C 119.491 181.301,118.629 181.256,116.429 181.256 C 114.229 181.255,113.291 181.300,114.345 181.354 M14.929 182.429 C 14.932 183.057,14.991 183.281,15.059 182.925 C 15.128 182.570,15.125 182.056,15.053 181.782 C 14.982 181.509,14.926 181.800,14.929 182.429 M374.371 184.286 C 374.371 185.150,374.425 185.504,374.490 185.071 C 374.556 184.639,374.556 183.932,374.490 183.500 C 374.425 183.068,374.371 183.421,374.371 184.286 M51.231 187.000 C 51.233 187.943,51.286 188.294,51.350 187.781 C 51.414 187.267,51.412 186.496,51.347 186.066 C 51.282 185.637,51.230 186.057,51.231 187.000 M14.691 192.714 C 14.691 195.700,14.733 196.883,14.785 195.342 C 14.836 193.802,14.836 191.359,14.784 189.914 C 14.732 188.468,14.690 189.729,14.691 192.714 M338.117 192.429 C 338.117 195.100,338.160 196.231,338.212 194.943 C 338.265 193.654,338.265 191.468,338.213 190.085 C 338.160 188.703,338.117 189.757,338.117 192.429 M51.234 198.286 C 51.234 199.307,51.286 199.725,51.350 199.214 C 51.413 198.704,51.413 197.868,51.350 197.357 C 51.286 196.846,51.234 197.264,51.234 198.286 M374.374 200.714 C 374.376 201.657,374.429 202.008,374.493 201.495 C 374.556 200.981,374.555 200.210,374.490 199.781 C 374.425 199.351,374.373 199.771,374.374 200.714 M337.786 201.571 C 337.790 202.200,337.848 202.424,337.916 202.068 C 337.985 201.713,337.982 201.198,337.911 200.925 C 337.839 200.652,337.783 200.943,337.786 201.571 M14.929 203.000 C 14.932 203.629,14.991 203.852,15.059 203.497 C 15.128 203.141,15.125 202.627,15.053 202.354 C 14.982 202.081,14.926 202.371,14.929 203.000 M51.495 203.429 C 51.495 203.979,51.554 204.204,51.626 203.929 C 51.697 203.654,51.697 203.204,51.626 202.929 C 51.554 202.654,51.495 202.879,51.495 203.429 M374.072 205.571 C 374.075 206.200,374.134 206.424,374.202 206.068 C 374.270 205.713,374.268 205.198,374.196 204.925 C 374.125 204.652,374.069 204.943,374.072 205.571 M274.643 215.069 C 275.704 215.124,277.439 215.124,278.500 215.069 C 279.561 215.014,278.693 214.969,276.571 214.969 C 274.450 214.969,273.582 215.014,274.643 215.069 M258.059 215.354 C 259.113 215.409,260.913 215.410,262.059 215.355 C 263.205 215.301,262.343 215.256,260.143 215.256 C 257.943 215.255,257.005 215.300,258.059 215.354 M244.751 215.655 C 244.674 215.779,245.085 215.836,245.663 215.781 C 247.430 215.614,247.638 215.497,246.231 215.462 C 245.494 215.443,244.828 215.530,244.751 215.655 M142.214 217.352 C 142.882 217.412,143.975 217.412,144.643 217.352 C 145.311 217.292,144.764 217.243,143.429 217.243 C 142.093 217.243,141.546 217.292,142.214 217.352 M126.357 217.640 C 127.418 217.695,129.154 217.695,130.214 217.640 C 131.275 217.585,130.407 217.540,128.286 217.540 C 126.164 217.540,125.296 217.585,126.357 217.640 M109.773 217.926 C 110.827 217.981,112.627 217.981,113.773 217.927 C 114.919 217.872,114.057 217.827,111.857 217.827 C 109.657 217.827,108.719 217.871,109.773 217.926 M157.429 232.947 C 157.429 232.996,157.846 233.414,158.357 233.875 L 159.286 234.714 158.447 233.786 C 157.664 232.920,157.429 232.726,157.429 232.947 M261.127 255.643 L 260.143 256.714 261.214 255.730 C 261.804 255.188,262.286 254.706,262.286 254.658 C 262.286 254.440,262.044 254.646,261.127 255.643 M130.429 257.714 C 131.202 258.500,131.900 259.143,131.979 259.143 C 132.057 259.143,131.488 258.500,130.714 257.714 C 129.940 256.929,129.243 256.286,129.164 256.286 C 129.086 256.286,129.655 256.929,130.429 257.714 M257.848 258.929 L 256.143 260.714 257.929 259.009 C 258.911 258.071,259.714 257.267,259.714 257.223 C 259.714 257.012,259.432 257.270,257.848 258.929 M190.075 284.205 C 190.510 284.271,191.153 284.269,191.504 284.201 C 191.855 284.133,191.500 284.080,190.714 284.082 C 189.929 284.084,189.641 284.139,190.075 284.205 M198.647 284.205 C 199.081 284.271,199.724 284.269,200.075 284.201 C 200.427 284.133,200.071 284.080,199.286 284.082 C 198.500 284.084,198.212 284.139,198.647 284.205 M299.413 290.500 L 298.429 291.571 299.500 290.587 C 300.497 289.670,300.703 289.429,300.485 289.429 C 300.437 289.429,299.955 289.911,299.413 290.500 M93.702 294.643 C 94.403 295.389,95.014 296.000,95.059 296.000 C 95.274 296.000,95.047 295.743,93.786 294.559 L 92.429 293.286 93.702 294.643 M292.571 297.286 C 291.877 297.993,291.374 298.571,291.452 298.571 C 291.531 298.571,292.163 297.993,292.857 297.286 C 293.551 296.579,294.055 296.000,293.976 296.000 C 293.898 296.000,293.265 296.579,292.571 297.286 M98.000 298.714 C 98.533 299.264,99.034 299.714,99.112 299.714 C 99.191 299.714,98.819 299.264,98.286 298.714 C 97.753 298.164,97.252 297.714,97.174 297.714 C 97.095 297.714,97.467 298.164,98.000 298.714 M59.714 311.804 C 59.714 311.853,60.132 312.271,60.643 312.732 L 61.571 313.571 60.732 312.643 C 59.950 311.777,59.714 311.583,59.714 311.804 M327.839 313.500 L 327.000 314.429 327.929 313.589 C 328.794 312.807,328.988 312.571,328.768 312.571 C 328.719 312.571,328.301 312.989,327.839 313.500 M63.702 316.071 C 64.403 316.818,65.014 317.429,65.059 317.429 C 65.274 317.429,65.047 317.172,63.786 315.988 L 62.429 314.714 63.702 316.071 M321.857 319.714 C 319.976 321.600,318.502 323.143,318.580 323.143 C 318.659 323.143,320.262 321.600,322.143 319.714 C 324.024 317.829,325.498 316.286,325.420 316.286 C 325.341 316.286,323.738 317.829,321.857 319.714 M71.131 323.500 C 71.831 324.246,72.442 324.857,72.488 324.857 C 72.703 324.857,72.476 324.601,71.214 323.417 L 69.857 322.143 71.131 323.500 M315.553 325.786 L 314.714 326.714 315.643 325.875 C 316.508 325.093,316.703 324.857,316.482 324.857 C 316.433 324.857,316.015 325.275,315.553 325.786 M186.214 335.916 C 186.568 335.984,187.146 335.984,187.500 335.916 C 187.854 335.848,187.564 335.792,186.857 335.792 C 186.150 335.792,185.861 335.848,186.214 335.916 M201.929 335.916 C 202.282 335.984,202.861 335.984,203.214 335.916 C 203.568 335.848,203.279 335.792,202.571 335.792 C 201.864 335.792,201.575 335.848,201.929 335.916 M178.643 371.911 C 178.918 371.983,179.368 371.983,179.643 371.911 C 179.918 371.839,179.693 371.781,179.143 371.781 C 178.593 371.781,178.368 371.839,178.643 371.911 M182.214 372.202 C 182.568 372.270,183.146 372.270,183.500 372.202 C 183.854 372.134,183.564 372.078,182.857 372.078 C 182.150 372.078,181.861 372.134,182.214 372.202 M206.218 372.202 C 206.573 372.270,207.087 372.268,207.360 372.196 C 207.634 372.125,207.343 372.069,206.714 372.072 C 206.086 372.075,205.862 372.134,206.218 372.202 M187.351 372.492 C 187.858 372.555,188.758 372.556,189.351 372.494 C 189.944 372.432,189.529 372.381,188.429 372.379 C 187.329 372.378,186.844 372.429,187.351 372.492 M200.214 372.492 C 200.725 372.556,201.561 372.556,202.071 372.492 C 202.582 372.429,202.164 372.377,201.143 372.377 C 200.121 372.377,199.704 372.429,200.214 372.492 " stroke="none" fill="#7be3cb" fill-rule="evenodd"></path><path id="path1" d="M186.857 12.868 C 77.862 17.647,-1.694 117.501,17.746 225.127 C 18.213 227.716,18.640 229.878,18.693 229.931 C 18.747 229.985,26.230 225.404,35.324 219.753 L 51.857 209.477 51.807 207.953 C 51.779 207.114,51.618 204.604,51.450 202.375 C 46.268 133.894,92.681 70.108,159.900 53.333 C 218.561 38.694,281.548 63.091,314.145 113.077 C 315.116 114.566,318.393 112.233,292.635 128.392 L 270.602 142.215 267.907 138.607 C 238.256 98.910,182.392 90.187,141.996 118.945 C 124.678 131.274,111.899 149.871,106.716 170.286 C 105.880 173.577,104.470 181.137,104.657 181.324 C 104.731 181.398,111.653 181.323,120.039 181.158 C 128.424 180.993,136.672 180.858,138.366 180.857 C 140.585 180.857,141.475 180.757,141.549 180.500 C 145.863 165.457,152.820 155.459,164.382 147.686 C 194.369 127.527,235.882 141.687,246.873 175.823 L 247.850 178.857 252.996 178.828 C 255.827 178.812,262.707 178.715,268.286 178.612 L 278.429 178.426 319.857 152.886 C 342.643 138.839,361.462 127.184,361.677 126.986 C 362.473 126.252,354.646 109.641,349.298 100.714 C 317.664 47.912,263.128 15.510,201.429 12.858 C 194.473 12.559,193.909 12.559,186.857 12.868 M355.025 174.143 L 338.193 184.548 338.129 192.917 C 337.194 315.537,193.902 380.985,100.954 301.246 C 92.466 293.965,78.484 278.500,79.510 277.529 C 79.701 277.349,89.737 271.089,101.813 263.618 L 123.769 250.036 125.203 251.759 C 166.708 301.632,247.083 292.182,276.245 234.000 C 279.090 228.324,283.911 215.376,283.331 214.968 C 283.278 214.931,245.022 215.648,244.954 215.688 C 244.929 215.702,244.247 216.952,243.439 218.464 C 227.422 248.440,189.239 257.036,161.956 236.808 C 156.019 232.406,149.192 224.344,146.346 218.376 L 145.862 217.361 131.860 217.572 C 124.158 217.688,115.479 217.864,112.571 217.963 L 107.286 218.143 68.929 241.961 C 47.832 255.061,30.571 265.932,30.571 266.118 C 30.571 266.673,36.363 278.150,38.586 282.000 C 102.869 393.332,259.186 403.776,337.480 301.970 C 366.949 263.652,380.679 209.647,372.393 164.643 C 372.168 163.419,373.967 162.434,355.025 174.143 " stroke="none" fill="#1cb494" fill-rule="evenodd"></path></g></svg>